<svg preserveAspectRatio="none" overflow="visible" style="display: block;" width="24" height="24" viewBox="0 0 24 24" fill="none" xmlns="http://www.w3.org/2000/svg">
<g id="Power">
<path id="Vector" d="M9.5 18L6.575 15.075C6.39167 14.8917 6.25 14.6793 6.15 14.438C6.05 14.196 6 13.9417 6 13.675V9C6 8.45 6.196 7.979 6.588 7.587C6.97933 7.19567 7.45 7 8 7H9L8 8V4C8 3.71667 8.096 3.479 8.288 3.287C8.47933 3.09567 8.71667 3 9 3C9.28333 3 9.521 3.09567 9.713 3.287C9.90433 3.479 10 3.71667 10 4V7H14V4C14 3.71667 14.096 3.479 14.288 3.287C14.4793 3.09567 14.7167 3 15 3C15.2833 3 15.521 3.09567 15.713 3.287C15.9043 3.479 16 3.71667 16 4V8L15 7H16C16.55 7 17.021 7.19567 17.413 7.587C17.8043 7.979 18 8.45 18 9V13.675C18 13.9417 17.95 14.196 17.85 14.438C17.75 14.6793 17.6083 14.8917 17.425 15.075L14.5 18V20C14.5 20.2833 14.4043 20.5207 14.213 20.712C14.021 20.904 13.7833 21 13.5 21H10.5C10.2167 21 9.97933 20.904 9.788 20.712C9.596 20.5207 9.5 20.2833 9.5 20V18Z" fill="#044947"/>
</g>
</svg>
